<svg xmlns="http://www.w3.org/2000/svg" viewBox="0 0 720 180" role="img" aria-labelledby="title desc">
<title>BlueTech Innovation Logo Concept 1</title><desc>Monogramme B technologique avec flux numériques.</desc>
<defs>
  <linearGradient id="g" x1="0" x2="1" y1="0" y2="1"><stop offset="0" stop-color="#18D6FF"/><stop offset="1" stop-color="#006BFF"/></linearGradient>
  <filter id="soft" x="-20%" y="-20%" width="140%" height="140%"><feDropShadow dx="0" dy="10" stdDeviation="12" flood-color="#006BFF" flood-opacity=".18"/></filter>
</defs>
<g filter="url(#soft)">
  <path d="M40 90 76 28h72l36 62-36 62H76Z" fill="url(#g)"/>
  <path d="M87 58h43c24 0 39 12 39 31 0 10-5 19-14 24 11 5 18 15 18 29 0 22-17 34-44 34H87V58Zm40 45c13 0 21-5 21-15 0-9-7-14-20-14h-20v29h19Zm4 56c15 0 23-6 23-17 0-10-8-16-23-16h-23v33h23Z" fill="white"/>
  <circle cx="54" cy="90" r="4" fill="white" opacity=".9"/><circle cx="184" cy="90" r="4" fill="white" opacity=".9"/>
  <path d="M54 90h28M156 90h28" stroke="white" stroke-width="4" stroke-linecap="round" opacity=".72"/>
</g>
<g fill="#031B34">
  <text x="220" y="82" font-family="Inter, Arial, sans-serif" font-size="48" font-weight="800" letter-spacing="-1.5">BlueTech</text>
  <text x="221" y="126" font-family="Inter, Arial, sans-serif" font-size="34" font-weight="600" letter-spacing="5" fill="#006BFF">INNOVATION</text>
</g>
</svg>